<?xml version="1.0" encoding="UTF-8"?>
<svg version="1.1" xmlns="http://www.w3.org/2000/svg" width="58" height="39">
<path d="M0 0 C1.57689857 -0.01429802 1.57689857 -0.01429802 3.18565369 -0.02888489 C4.32523026 -0.02797348 5.46480682 -0.02706207 6.63891602 -0.02612305 C7.80536148 -0.03040817 8.97180695 -0.0346933 10.17359924 -0.03910828 C12.64420929 -0.04485981 15.11483627 -0.04534581 17.58544922 -0.04101562 C21.37374669 -0.0378577 25.16126219 -0.06129866 28.94946289 -0.08666992 C31.34594628 -0.08894295 33.74243177 -0.08964639 36.13891602 -0.08862305 C37.84524452 -0.10243767 37.84524452 -0.10243767 39.58604431 -0.11653137 C41.16767113 -0.10718819 41.16767113 -0.10718819 42.78125 -0.09765625 C43.71009506 -0.09828568 44.63894012 -0.0989151 45.59593201 -0.0995636 C47.95532227 0.2746582 47.95532227 0.2746582 49.76039124 1.60188293 C51.6674421 4.27154958 51.23821354 6.75065195 51.14282227 9.9621582 C51.1022168 11.73139648 51.1022168 11.73139648 51.06079102 13.53637695 C51.02598633 14.44000977 50.99118164 15.34364258 50.95532227 16.2746582 C48.97532227 17.2646582 48.97532227 17.2646582 46.95532227 18.2746582 C46.95532227 19.9246582 46.95532227 21.5746582 46.95532227 23.2746582 C48.27532227 23.6046582 49.59532227 23.9346582 50.95532227 24.2746582 C51.00918855 26.39938396 51.04805297 28.52449473 51.08032227 30.6496582 C51.10352539 31.83301758 51.12672852 33.01637695 51.15063477 34.2355957 C50.95532227 37.2746582 50.95532227 37.2746582 48.95532227 39.2746582 C46.67822266 39.52862549 46.67822266 39.52862549 43.80297852 39.53344727 C42.72846436 39.53975159 41.6539502 39.54605591 40.546875 39.55255127 C39.3822876 39.54850281 38.2177002 39.54445435 37.01782227 39.5402832 C35.82680908 39.54219666 34.6357959 39.54411011 33.40869141 39.54608154 C30.88679799 39.54744451 28.36489758 39.54374037 25.84301758 39.53540039 C21.97143878 39.52470274 18.10032404 39.53529226 14.22875977 39.5480957 C11.78344624 39.54677413 9.338133 39.54421178 6.89282227 39.5402832 C5.14594116 39.5463559 5.14594116 39.5463559 3.36376953 39.55255127 C2.28925537 39.54624695 1.21474121 39.53994263 0.10766602 39.53344727 C-1.31557983 39.53106049 -1.31557983 39.53106049 -2.76757812 39.52862549 C-5.04467773 39.2746582 -5.04467773 39.2746582 -7.04467773 37.2746582 C-7.38061523 34.34106445 -7.38061523 34.34106445 -7.41967773 30.8371582 C-7.44803711 29.68344727 -7.47639648 28.52973633 -7.50561523 27.34106445 C-7.04467773 24.2746582 -7.04467773 24.2746582 -5.02124023 22.36450195 C-4.36897461 22.00485352 -3.71670898 21.64520508 -3.04467773 21.2746582 C-3.31143977 19.28974178 -3.31143977 19.28974178 -4.04467773 17.2746582 C-5.03467773 16.9446582 -6.02467773 16.6146582 -7.04467773 16.2746582 C-7.09852295 13.98324534 -7.13739861 11.69147632 -7.16967773 9.3996582 C-7.19288086 8.12348633 -7.21608398 6.84731445 -7.23999023 5.5324707 C-6.9182166 0.16528646 -4.80376605 0.02384876 0 0 Z M2.95532227 9.2746582 C2.64512531 11.47068615 2.64512531 11.47068615 2.68969727 13.9934082 C2.68711914 14.92540039 2.68454102 15.85739258 2.68188477 16.81762695 C2.68961914 17.79344727 2.69735352 18.76926758 2.70532227 19.7746582 C2.69758789 20.75047852 2.68985352 21.72629883 2.68188477 22.73168945 C2.68446289 23.66368164 2.68704102 24.59567383 2.68969727 25.5559082 C2.69195312 26.41249023 2.69420898 27.26907227 2.6965332 28.15161133 C2.76030655 30.49054368 2.76030655 30.49054368 4.95532227 32.2746582 C7.51282679 32.4742279 9.95970367 32.55452647 12.51782227 32.5402832 C13.63846069 32.54315338 13.63846069 32.54315338 14.78173828 32.54608154 C16.36206397 32.54744318 17.94240085 32.5437482 19.52270508 32.53540039 C21.94581149 32.5247002 24.3681765 32.53529599 26.79125977 32.5480957 C28.32511557 32.5467741 29.85897092 32.5442117 31.39282227 32.5402832 C32.48348999 32.5463559 32.48348999 32.5463559 33.59619141 32.55255127 C37.7300186 32.64197322 37.7300186 32.64197322 40.95532227 30.2746582 C41.26551922 28.07863025 41.26551922 28.07863025 41.22094727 25.5559082 C41.22352539 24.62391602 41.22610352 23.69192383 41.22875977 22.73168945 C41.2171582 21.26795898 41.2171582 21.26795898 41.20532227 19.7746582 C41.21305664 18.79883789 41.22079102 17.82301758 41.22875977 16.81762695 C41.22618164 15.88563477 41.22360352 14.95364258 41.22094727 13.9934082 C41.21869141 13.13682617 41.21643555 12.28024414 41.21411133 11.39770508 C41.15033798 9.05877273 41.15033798 9.05877273 38.95532227 7.2746582 C36.39781774 7.0750885 33.95094086 6.99478994 31.39282227 7.0090332 C30.64572998 7.00711975 29.8986377 7.0052063 29.12890625 7.00323486 C27.54858056 7.00187322 25.96824368 7.00556821 24.38793945 7.01391602 C21.96483304 7.0246162 19.54246803 7.01402041 17.11938477 7.0012207 C15.58552896 7.0025423 14.05167361 7.0051047 12.51782227 7.0090332 C11.79071045 7.00498474 11.06359863 7.00093628 10.31445312 6.99676514 C6.18062594 6.90734318 6.18062594 6.90734318 2.95532227 9.2746582 Z " fill="#1D1D1B" transform="translate(7.044677734375,-0.274658203125)"/>
<path d="M0 0 C10.89 0 21.78 0 33 0 C33 6.27 33 12.54 33 19 C22.11 19 11.22 19 0 19 C0 12.73 0 6.46 0 0 Z " fill="#1C1C1B" transform="translate(12,10)"/>
</svg>
