<?xml version="1.0" encoding="UTF-8"?>
<svg version="1.1" xmlns="http://www.w3.org/2000/svg" width="890" height="137">
<path d="M0 0 C0.7407217 -0.00453111 1.48144339 -0.00906223 2.2446112 -0.01373065 C4.71570488 -0.02634653 7.18657736 -0.02475614 9.65769958 -0.02310181 C11.43370343 -0.02908862 13.20970468 -0.03589452 14.98570251 -0.04345703 C19.801659 -0.06110381 24.6175444 -0.06581172 29.43353009 -0.0670886 C32.44241845 -0.06851095 35.45128878 -0.07278202 38.46017265 -0.07808304 C48.95685346 -0.09657547 59.4534835 -0.1047542 69.95018005 -0.10317993 C79.73644312 -0.10197716 89.52248612 -0.12310816 99.30869347 -0.15466726 C107.71223062 -0.18080241 116.11569573 -0.19154846 124.51927322 -0.19026911 C129.53790685 -0.18975888 134.55634466 -0.19547669 139.57493782 -0.21662521 C144.29215503 -0.23596233 149.00898859 -0.23616321 153.72621918 -0.22159195 C155.45762885 -0.21949746 157.18906227 -0.22424276 158.92043114 -0.23631287 C161.28350757 -0.25172076 163.64525357 -0.24248821 166.00830078 -0.22705078 C167.03670786 -0.24248147 167.03670786 -0.24248147 168.08589083 -0.25822389 C172.7680034 -0.19059267 175.182813 0.92182723 178.44065857 4.26742554 C179.96428689 10.33473118 175.9212682 15.42377366 172.94065857 20.45492554 C172.36839539 21.44291138 171.7961322 22.43089722 171.20652771 23.44882202 C169.29912494 26.73043281 167.37112356 29.99933392 165.44065857 33.26742554 C164.73302322 34.47257015 164.02583725 35.67797873 163.31907654 36.88363647 C159.85393425 42.79343924 156.37524917 48.69519367 152.87425232 54.58383179 C152.02431702 56.01384521 152.02431702 56.01384521 151.1572113 57.4727478 C145.63027018 66.47102614 145.63027018 66.47102614 142.12815857 69.45492554 C141.59577576 69.92285522 141.06339294 70.39078491 140.51487732 70.87289429 C134.94346043 74.61864914 129.61661791 75.77714206 123.06565857 76.39242554 C118.37262644 76.46986772 118.37262644 76.46986772 114.44065857 78.26742554 C114.40002025 79.93359669 114.39793757 81.60130649 114.44065857 83.26742554 C115.49253357 83.55617554 116.54440857 83.84492554 117.62815857 84.14242554 C120.67973965 85.04289209 123.56532602 85.91432787 126.44065857 87.26742554 C128.22428109 90.83467057 127.32966024 94.5313679 126.44065857 98.26742554 C125.25980457 100.96152208 123.87159057 103.42821161 122.37815857 105.96273804 C120.86790321 108.53869778 119.45045111 111.11682027 118.06565857 113.75961304 C117.43228577 114.95082764 117.43228577 114.95082764 116.78611755 116.16610718 C115.95046995 117.73833323 115.12396361 119.31546304 114.30809021 120.89804077 C109.82913622 129.18116195 104.56065499 133.33691771 95.68829346 136.438797 C89.63408922 137.98351695 83.53269569 137.81909932 77.32347107 137.76351929 C75.89385403 137.76367466 74.46423658 137.76516987 73.03462219 137.76792908 C70.06105074 137.76930314 67.08796753 137.75691472 64.11448669 137.73397827 C60.31148622 137.70543966 56.50928563 137.70838596 52.70622444 137.72106838 C49.76359762 137.72803023 46.82115479 137.72023322 43.87855148 137.70781136 C42.47598349 137.70331267 41.07339566 137.70294616 39.67082596 137.70687675 C37.71402453 137.70979761 35.75722717 137.69109095 33.80052185 137.67147827 C32.69008514 137.66607529 31.57964844 137.6606723 30.43556213 137.65510559 C27.02444854 137.21354857 25.12465869 136.40802209 22.44065857 134.26742554 C21.46775081 127.8201988 23.23133251 123.65625898 26.31565857 118.07992554 C27.04385543 116.71230493 27.77045891 115.34383453 28.49534607 113.97445679 C28.8353363 113.33330933 29.17532654 112.69216187 29.52561951 112.03158569 C31.64661054 107.94239648 32.70579272 104.90727314 32.44065857 100.26742554 C25.63467591 99.76534485 19.92711605 99.8413758 14.44065857 104.26742554 C11.30642878 107.88167251 8.88129324 111.91300539 6.38987732 115.98471069 C-4.39379809 133.56534053 -4.39379809 133.56534053 -12.77125549 136.32577515 C-19.20371685 137.86657708 -25.80881122 137.57566461 -32.38356018 137.56820679 C-33.81746544 137.57210024 -35.25136956 137.57643624 -36.68527222 137.58119202 C-39.67661803 137.58861814 -42.6678457 137.58838766 -45.65919495 137.58309937 C-49.48576313 137.57728484 -53.31185041 137.59430039 -57.13833904 137.61744404 C-60.0937989 137.63219017 -63.04914282 137.63305233 -66.00463295 137.62993431 C-67.41559114 137.63044627 -68.82655602 137.63566053 -70.23747826 137.64574623 C-72.2089046 137.65812004 -74.18042907 137.64936999 -76.15187073 137.63973999 C-77.27135605 137.64036942 -78.39084137 137.64099884 -79.54425049 137.64164734 C-82.94061318 137.22010351 -84.82518046 136.29301369 -87.55934143 134.26742554 C-89.24558408 130.89494024 -89.23201206 127.88868284 -88.55934143 124.26742554 C-86.59408442 119.78476054 -84.08221166 115.64006574 -81.55934143 111.45492554 C-80.8293741 110.21510424 -80.10096658 108.97436338 -79.3740387 107.73275757 C-77.49049903 104.5251424 -75.5868153 101.33001636 -73.67683411 98.13809204 C-71.9286744 95.21169808 -70.19576579 92.27640416 -68.46168518 89.34164429 C-66.47734532 85.9863414 -64.4908773 82.63240375 -62.49732971 79.28256226 C-57.91520122 71.5829279 -53.40236472 63.84628692 -48.93434143 56.07992554 C-48.32260071 55.01685181 -47.71085999 53.95377808 -47.08058167 52.85848999 C-46.16901306 51.27427246 -46.16901306 51.27427246 -45.23902893 49.65805054 C-41.52694623 43.20689775 -37.80018688 36.76444138 -34.05934143 30.32992554 C-33.50810608 29.37771118 -32.95687073 28.42549683 -32.38893127 27.44442749 C-16.36777288 -0.07418241 -16.36777288 -0.07418241 0 0 Z M58.44065857 24.26742554 C55.79541919 28.00494738 53.4485583 31.88448187 51.12815857 35.82992554 C50.52165466 36.83217163 49.91515076 37.83441772 49.29026794 38.86703491 C43.62977493 47.41319151 43.62977493 47.41319151 41.62815857 57.07992554 C42.32978738 59.43432416 42.32978738 59.43432416 44.44065857 61.26742554 C51.84032682 62.15538573 56.64425502 59.36752088 62.37425232 55.06430054 C65.7366869 52.19766023 68.06348928 48.90285009 70.44065857 45.20492554 C70.86927185 44.54734253 71.29788513 43.88975952 71.73948669 43.21224976 C77.2305573 34.65056916 81.75459271 26.38382066 83.44065857 16.26742554 C81.36966002 14.42653793 79.95190316 13.35263297 77.19065857 12.89242554 C68.57185047 14.06771755 63.97157874 17.83672301 58.44065857 24.26742554 Z " fill="#FC56AE" transform="translate(88.55934143066406,-0.267425537109375)"/>
<path d="M0 0 C0.7407217 -0.00453111 1.48144339 -0.00906223 2.2446112 -0.01373065 C4.71570488 -0.02634653 7.18657736 -0.02475614 9.65769958 -0.02310181 C11.43370343 -0.02908862 13.20970468 -0.03589452 14.98570251 -0.04345703 C19.801659 -0.06110381 24.6175444 -0.06581172 29.43353009 -0.0670886 C32.44241845 -0.06851095 35.45128878 -0.07278202 38.46017265 -0.07808304 C48.95685346 -0.09657547 59.4534835 -0.1047542 69.95018005 -0.10317993 C79.73644312 -0.10197716 89.52248612 -0.12310816 99.30869347 -0.15466726 C107.71223062 -0.18080241 116.11569573 -0.19154846 124.51927322 -0.19026911 C129.53790685 -0.18975888 134.55634466 -0.19547669 139.57493782 -0.21662521 C144.29215503 -0.23596233 149.00898859 -0.23616321 153.72621918 -0.22159195 C155.45762885 -0.21949746 157.18906227 -0.22424276 158.92043114 -0.23631287 C161.28350757 -0.25172076 163.64525357 -0.24248821 166.00830078 -0.22705078 C167.03670786 -0.24248147 167.03670786 -0.24248147 168.08589083 -0.25822389 C172.7680034 -0.19059267 175.182813 0.92182723 178.44065857 4.26742554 C179.96427033 10.33466522 175.92131512 15.42385635 172.94065857 20.45492554 C172.36694519 21.44508667 171.79323181 22.4352478 171.20213318 23.45541382 C169.29572209 26.73453256 167.36906087 30.00119707 165.44065857 33.26742554 C164.7436636 34.45639766 164.04722008 35.64569322 163.3513031 36.83529663 C143.00419023 71.61361527 143.00419023 71.61361527 135.4857645 73.84853554 C129.98496207 75.11964941 124.82734249 75.55162895 119.19236755 75.52279663 C118.31632874 75.52641708 117.44028992 75.53003754 116.53770447 75.5337677 C114.65207389 75.54061507 112.7664237 75.54317597 110.88078117 75.54182053 C107.89108949 75.54084819 104.90175035 75.55387939 101.91210938 75.57080078 C93.41782799 75.61686968 84.92358619 75.64168413 76.42918396 75.64828491 C71.21855351 75.65330845 66.0082963 75.6775934 60.79779243 75.7136116 C58.81996466 75.72338233 56.84208541 75.7257565 54.86424065 75.72043991 C52.09560745 75.71334298 49.3280835 75.73070296 46.55955505 75.75326538 C45.75153946 75.74509293 44.94352386 75.73692047 44.11102295 75.72850037 C37.82739421 75.81919456 32.54906204 77.45576389 27.81651974 81.73651695 C23.04787791 86.77638699 19.66145651 93.10699308 16.15208435 99.05648804 C15.05935253 100.90308203 13.9479561 102.73753921 12.83518982 104.57211304 C12.13221197 105.75371836 11.43034835 106.93598744 10.72972107 108.11898804 C10.09759705 109.17940308 9.46547302 110.23981812 8.81419373 111.33236694 C7.40950089 114.33400527 6.86952438 116.0116059 7.44065857 119.26742554 C10.80536044 121.51056012 12.34321677 121.49641145 16.25706482 120.85726929 C25.81956982 118.27419549 29.64773173 111.05611939 34.34300232 103.00570679 C39.53408518 94.26755004 43.42807383 88.13908188 53.44065857 85.26742554 C56.78601074 84.99327087 56.78601074 84.99327087 60.46824646 84.96102905 C61.14384109 84.95270554 61.81943573 84.94438202 62.51550293 84.93580627 C64.73150005 84.91186162 66.94720239 84.90295596 69.16331482 84.89633179 C70.7121794 84.88735755 72.26104313 84.87823556 73.80990601 84.86897278 C77.04857994 84.85252534 80.28715096 84.84478975 83.52586365 84.84188843 C87.67108152 84.83649167 91.81533091 84.79874162 95.9602747 84.75314426 C99.15594004 84.72338156 102.35137112 84.71616515 105.54716301 84.71516228 C107.07538249 84.71096269 108.60360284 84.69853868 110.13168526 84.67764473 C112.26933729 84.65072751 114.40472918 84.6555522 116.54246521 84.6680603 C118.3639785 84.66045433 118.3639785 84.66045433 120.22229004 84.6526947 C124.36355634 85.44370545 125.85130789 87.00884541 128.44065857 90.26742554 C129.338515 95.30803048 127.64727728 98.40092963 125.15159607 102.73226929 C124.81068939 103.32866714 124.46978271 103.925065 124.11854553 104.53953552 C123.39662135 105.79605666 122.66840815 107.04898306 121.93431091 108.2984314 C120.82574565 110.18773435 119.73926847 112.0884211 118.65550232 113.99203491 C109.10514943 130.60174787 109.10514943 130.60174787 101.31565857 134.14242554 C100.48808044 134.53172241 99.66050232 134.92101929 98.80784607 135.32211304 C94.21932302 137.15449353 90.3089149 137.39634519 85.34960938 137.40786743 C84.63509784 137.41083855 83.92058631 137.41380968 83.18442291 137.41687083 C80.79008659 137.42554289 78.39580036 137.4270648 76.00144958 137.42855835 C74.28485508 137.43318748 72.5682616 137.43821226 70.85166931 137.44360352 C66.18849642 137.45671794 61.52533792 137.46317028 56.86214948 137.46761417 C53.94942802 137.47054564 51.03671049 137.47465053 48.12399101 137.47911835 C39.01237715 137.49278899 29.90077227 137.50245852 20.78914887 137.50632024 C10.26749812 137.51080406 -0.25402293 137.52836877 -10.77563423 137.55732083 C-18.90736325 137.57892116 -27.03905573 137.58902359 -35.17081314 137.59036136 C-40.02848139 137.59141031 -44.88602763 137.59733754 -49.7436657 137.61518097 C-54.3114168 137.63163377 -58.8789538 137.63383078 -63.44672394 137.62504196 C-65.1233051 137.62427016 -66.79989766 137.62863306 -68.47644997 137.63850021 C-70.76499235 137.6511797 -73.05277176 137.6453653 -75.34130859 137.63491821 C-76.62201453 137.63638477 -77.90272047 137.63785133 -79.22223568 137.63936234 C-82.81326577 137.23912442 -84.70065134 136.43649386 -87.55934143 134.26742554 C-89.20578793 130.97453254 -89.12118177 127.81958719 -88.55934143 124.26742554 C-87.0762031 120.61887523 -85.09042221 117.32276813 -83.05934143 113.95492554 C-82.47910217 112.96146118 -81.89886292 111.96799683 -81.30104065 110.94442749 C-79.40467991 107.70805555 -77.48346871 104.48735466 -75.55934143 101.26742554 C-74.25884852 99.07010854 -72.95937572 96.87218749 -71.66090393 94.67367554 C-68.9833485 90.14583606 -66.2967113 85.623523 -63.60621643 81.10336304 C-59.66132162 74.45982734 -55.78673843 67.77743222 -51.93434143 61.07992554 C-45.36211544 49.65454949 -38.75420942 38.2514029 -32.08277893 26.88363647 C-30.69089237 24.49333897 -29.32361712 22.09112953 -27.96559143 19.68148804 C-21.10440043 7.62970664 -14.77333116 -0.06695605 0 0 Z M56.64256287 26.74349976 C54.93107627 29.36462401 53.29806319 32.01881685 51.69065857 34.70492554 C51.14022888 35.59502319 50.58979919 36.48512085 50.02268982 37.40219116 C43.78628088 46.95830837 43.78628088 46.95830837 41.56565857 57.76742554 C42.16892765 60.42175815 42.16892765 60.42175815 44.44065857 61.26742554 C51.6054686 61.98390654 56.22434625 59.57802431 61.88206482 55.51351929 C64.77804938 52.97124277 67.03349277 50.20394888 69.25315857 47.07992554 C69.68040222 46.48059204 70.10764587 45.88125854 70.5478363 45.26376343 C75.90977899 37.47226825 82.61726907 26.90283454 83.44065857 17.26742554 C81.58330684 14.62427116 80.39046025 13.4521092 77.19065857 12.82992554 C67.66324447 14.34565051 62.22397735 19.05759267 56.64256287 26.74349976 Z " fill="#FC56AE" transform="translate(296.55934143066406,-0.267425537109375)"/>
<path d="M0 0 C0.7407217 -0.00453111 1.48144339 -0.00906223 2.2446112 -0.01373065 C4.71570488 -0.02634653 7.18657736 -0.02475614 9.65769958 -0.02310181 C11.43370343 -0.02908862 13.20970468 -0.03589452 14.98570251 -0.04345703 C19.801659 -0.06110381 24.6175444 -0.06581172 29.43353009 -0.0670886 C32.44241845 -0.06851095 35.45128878 -0.07278202 38.46017265 -0.07808304 C48.95685346 -0.09657547 59.4534835 -0.1047542 69.95018005 -0.10317993 C79.73644312 -0.10197716 89.52248612 -0.12310816 99.30869347 -0.15466726 C107.71223062 -0.18080241 116.11569573 -0.19154846 124.51927322 -0.19026911 C129.53790685 -0.18975888 134.55634466 -0.19547669 139.57493782 -0.21662521 C144.29215503 -0.23596233 149.00898859 -0.23616321 153.72621918 -0.22159195 C155.45762885 -0.21949746 157.18906227 -0.22424276 158.92043114 -0.23631287 C161.28350757 -0.25172076 163.64525357 -0.24248821 166.00830078 -0.22705078 C167.03670786 -0.24248147 167.03670786 -0.24248147 168.08589083 -0.25822389 C171.55803309 -0.2080702 173.40935173 0.24767281 176.37390041 2.11812401 C178.44065857 4.26742554 178.44065857 4.26742554 178.94114685 7.15072632 C178.36611212 10.73164993 177.26934822 13.00996272 175.43284607 16.13461304 C174.78219177 17.25658081 174.13153748 18.37854858 173.46116638 19.53451538 C172.74628899 20.73732562 172.03111301 21.93995845 171.31565857 23.14242554 C170.58890777 24.38474614 169.86333504 25.62775659 169.13890076 26.87142944 C167.65159353 29.42027203 166.15708421 31.9646715 164.65647888 34.50570679 C162.55223779 38.07156407 160.47404098 41.65173887 158.40159607 45.23617554 C151.88153204 56.49657941 151.88153204 56.49657941 149.78636169 59.99691772 C148.70358821 61.82380332 147.67947178 63.68538855 146.67503357 65.55648804 C142.8270381 70.22520982 138.48255186 73.6049861 132.34118652 74.61151505 C126.11411638 75.17070896 119.86592208 75.05242696 113.62034607 75.00180054 C111.59112997 75.00798255 109.56192087 75.017085 107.5327301 75.02896118 C102.21248414 75.05360546 96.89286881 75.04450197 91.57261658 75.02639771 C83.05206149 75.00292554 74.53154527 75.03026502 66.01103592 75.05912018 C63.04636345 75.0642129 60.08203179 75.05441999 57.11738586 75.04226685 C55.29008478 75.04245552 53.46278369 75.04294813 51.63548279 75.04379272 C50.8196875 75.03652664 50.00389221 75.02926056 49.16337585 75.02177429 C41.3449562 75.04706158 34.71739313 76.24603789 28.44065857 81.26742554 C23.61236327 86.73113791 19.93543763 92.72451698 16.2275238 98.98104858 C15.124698 100.8357454 14.00482981 102.679416 12.88401794 104.52328491 C12.1765748 105.70950059 11.47015785 106.89632902 10.76487732 108.08383179 C10.12638855 109.15061157 9.48789978 110.21739136 8.83006287 111.3164978 C7.41252844 114.32717055 6.86359353 115.99929127 7.44065857 119.26742554 C10.80536044 121.51056012 12.34321677 121.49641145 16.25706482 120.85726929 C25.81956982 118.27419549 29.64773173 111.05611939 34.34300232 103.00570679 C39.53408518 94.26755004 43.42807383 88.13908188 53.44065857 85.26742554 C56.78601074 84.99327087 56.78601074 84.99327087 60.46824646 84.96102905 C61.14384109 84.95270554 61.81943573 84.94438202 62.51550293 84.93580627 C64.73150005 84.91186162 66.94720239 84.90295596 69.16331482 84.89633179 C70.7121794 84.88735755 72.26104313 84.87823556 73.80990601 84.86897278 C77.04857994 84.85252534 80.28715096 84.84478975 83.52586365 84.84188843 C87.67108152 84.83649167 91.81533091 84.79874162 95.9602747 84.75314426 C99.15594004 84.72338156 102.35137112 84.71616515 105.54716301 84.71516228 C107.07538249 84.71096269 108.60360284 84.69853868 110.13168526 84.67764473 C112.26933729 84.65072751 114.40472918 84.6555522 116.54246521 84.6680603 C118.3639785 84.66045433 118.3639785 84.66045433 120.22229004 84.6526947 C124.36416835 85.44382235 125.85251995 87.00677061 128.44065857 90.26742554 C129.27881466 95.14950218 127.8216827 98.07768494 125.37034607 102.25961304 C124.72065857 103.37723022 124.07097107 104.49484741 123.40159607 105.64633179 C123.05838318 106.22141479 122.71517029 106.7964978 122.36155701 107.38900757 C121.32709714 109.12324912 120.31207505 110.86768267 119.30003357 112.61508179 C107.58181407 132.58200873 107.58181407 132.58200873 96.26748085 136.31412029 C92.34636873 137.29091421 89.02287994 137.52163981 84.98884583 137.52812195 C84.27177102 137.5319475 83.55469621 137.53577304 82.81589186 137.53971452 C80.43080954 137.54997265 78.0459712 137.54606624 75.66087341 137.54208374 C73.94383523 137.54643406 72.226799 137.55161828 70.50976562 137.55757141 C65.85914432 137.57093458 61.20860442 137.57154334 56.55796766 137.56900811 C52.67351302 137.56793712 48.78907476 137.57282478 44.90462363 137.57761353 C35.74279463 137.58869828 26.58100665 137.58915117 17.41917419 137.58309937 C7.96749814 137.57705223 -1.48402933 137.5893917 -10.93568003 137.61066943 C-19.05473773 137.62827509 -27.17374807 137.63428864 -35.29282415 137.63103169 C-40.14037773 137.62921789 -44.98782519 137.63186521 -49.83536148 137.64574623 C-54.39085434 137.65830398 -58.94611487 137.6564 -63.50160408 137.64333534 C-65.17334509 137.64096596 -66.84510235 137.64371716 -68.51682472 137.65195847 C-70.79865256 137.6623968 -73.07969648 137.65434954 -75.36149597 137.64164734 C-76.63830545 137.64181508 -77.91511494 137.64198282 -79.23061562 137.64215565 C-82.81507845 137.23863603 -84.70446016 136.43174184 -87.55934143 134.26742554 C-89.20578793 130.97453254 -89.12118177 127.81958719 -88.55934143 124.26742554 C-87.0762031 120.61887523 -85.09042221 117.32276813 -83.05934143 113.95492554 C-82.47910217 112.96146118 -81.89886292 111.96799683 -81.30104065 110.94442749 C-79.40467991 107.70805555 -77.48346871 104.48735466 -75.55934143 101.26742554 C-74.25884852 99.07010854 -72.95937572 96.87218749 -71.66090393 94.67367554 C-68.9833485 90.14583606 -66.2967113 85.623523 -63.60621643 81.10336304 C-59.66132162 74.45982734 -55.78673843 67.77743222 -51.93434143 61.07992554 C-45.36211544 49.65454949 -38.75420942 38.2514029 -32.08277893 26.88363647 C-30.69089237 24.49333897 -29.32361712 22.09112953 -27.96559143 19.68148804 C-21.10440043 7.62970664 -14.77333116 -0.06695605 0 0 Z M58.44065857 24.26742554 C56.03325064 27.62286378 53.88272802 31.10577401 51.75315857 34.64242554 C51.19821716 35.53703491 50.64327576 36.43164429 50.07151794 37.35336304 C43.79958329 46.92720396 43.79958329 46.92720396 41.56565857 57.76742554 C42.16892765 60.42175815 42.16892765 60.42175815 44.44065857 61.26742554 C51.63709607 61.98706929 56.19712322 59.90777712 61.66722107 55.45492554 C71.39004307 46.36692697 81.99301319 30.83326366 83.44065857 17.26742554 C81.98397095 14.81028185 81.98397095 14.81028185 79.44065857 13.26742554 C70.6484381 11.66884 63.78316984 18.0947888 58.44065857 24.26742554 Z " fill="#FC56AE" transform="translate(711.5593414306641,-0.267425537109375)"/>
<path d="M0 0 C0.68680847 -0.00350464 1.37361694 -0.00700928 2.08123779 -0.01062012 C4.33998878 -0.01938639 6.59842384 -0.01360716 8.85717773 -0.00683594 C10.43228719 -0.0081839 12.00739624 -0.01012553 13.58250427 -0.01263428 C16.87844822 -0.01557849 20.17428355 -0.01130998 23.47021484 -0.00195312 C27.69258279 0.00945042 31.91469672 0.00287186 36.1370554 -0.00909805 C39.38756726 -0.01632767 42.63801896 -0.01402383 45.88853264 -0.00884247 C47.44544441 -0.00750951 49.00236167 -0.00914132 50.55926704 -0.01380157 C52.73497097 -0.01888599 54.91026413 -0.0111304 57.0859375 0 C58.3232814 0.00159119 59.56062531 0.00318237 60.83546448 0.00482178 C63.83936068 0.24756381 65.54710177 0.50976178 67.97827148 2.25878906 C69.09635393 5.5708446 69.44055605 7.97093088 68.23950195 11.31689453 C67.06028847 13.67692442 65.76784248 15.93079172 64.41577148 18.19628906 C63.67073364 19.49566406 63.67073364 19.49566406 62.91064453 20.82128906 C61.28512736 23.64504461 59.63308333 26.45211714 57.97827148 29.25878906 C56.88068733 31.14479254 55.78433981 33.03151622 54.68920898 34.91894531 C52.37403729 38.90217014 50.04792935 42.87878049 47.71655273 46.85253906 C43.4090462 54.21143353 39.18876831 61.61942582 34.97021484 69.02947998 C29.58389296 78.48823521 24.1270339 87.90379381 18.58178711 97.27050781 C17.02312789 99.92041695 15.49029224 102.58201552 13.97827148 105.25878906 C13.47086426 106.15694336 12.96345703 107.05509766 12.44067383 107.98046875 C11.97226074 108.85348633 11.50384766 109.72650391 11.02124023 110.62597656 C10.60253662 111.39796387 10.18383301 112.16995117 9.75244141 112.96533203 C8.80699922 115.76617843 9.18113225 117.45159395 9.97827148 120.25878906 C13.17304856 121.30448359 15.10358096 121.23226751 18.29077148 120.19628906 C19.3677832 119.86951172 19.3677832 119.86951172 20.46655273 119.53613281 C27.81126513 115.80095248 31.87382163 109.94740455 35.97827148 103.00878906 C36.80403687 101.64318848 36.80403687 101.64318848 37.64648438 100.25 C39.44202964 97.26338035 41.2137562 94.263838 42.97827148 91.25878906 C43.58268066 90.23011719 44.18708984 89.20144531 44.80981445 88.14160156 C52.89673677 74.32582076 60.74783861 60.37819893 68.54858398 46.39941406 C72.00950472 40.19785569 75.48851758 34.00666384 78.97827148 27.82128906 C79.49405762 26.90452393 80.00984375 25.98775879 80.54125977 25.04321289 C83.04801063 20.60395382 85.58278116 16.18151075 88.16577148 11.78613281 C88.86766602 10.58911743 88.86766602 10.58911743 89.58374023 9.36791992 C92.95644554 4.26693933 97.11218723 1.8710943 102.97827148 0.25878906 C106.28565979 -0.00190735 106.28565979 -0.00190735 109.9140625 -0.01586914 C110.9128241 -0.02353554 110.9128241 -0.02353554 111.9317627 -0.03135681 C114.11532779 -0.04516759 116.29857438 -0.04430309 118.48217773 -0.04199219 C120.00862239 -0.04588273 121.53506598 -0.05021814 123.06150818 -0.05497742 C126.25311807 -0.06242048 129.44461729 -0.0621615 132.63623047 -0.05688477 C136.72067562 -0.05108097 140.80466865 -0.06805199 144.88903904 -0.09122944 C148.03837214 -0.10597553 151.18759642 -0.10683751 154.33695793 -0.10371971 C155.84281246 -0.1042321 157.3486732 -0.10945441 158.85449409 -0.11953163 C160.96058569 -0.1319015 163.06579697 -0.12510304 165.171875 -0.11352539 C166.3684523 -0.11415482 167.5650296 -0.11478424 168.79786682 -0.11543274 C172.58477224 0.33015288 175.26255018 1.54306776 177.97827148 4.25878906 C178.35949151 9.41547765 177.74707717 12.53835738 175.18920898 17.00488281 C174.58463867 18.07681885 173.98006836 19.14875488 173.35717773 20.25317383 C172.36524414 21.95751587 172.36524414 21.95751587 171.35327148 23.69628906 C170.66587897 24.90125615 169.97969911 26.10691576 169.29467773 27.31323242 C167.54297019 30.38805939 165.77282555 33.45174944 163.9942627 36.5111084 C163.03921404 38.15395733 162.08725021 39.79859849 161.13549805 41.44335938 C158.27459573 46.38462652 155.39713929 51.31585198 152.50561523 56.23925781 C148.8190467 62.51927847 145.17619378 68.82405481 141.54077148 75.13378906 C140.92322998 76.20540283 140.30568848 77.2770166 139.66943359 78.38110352 C138.41286521 80.56193143 137.15643708 82.74284017 135.90014648 84.92382812 C134.26182834 87.76674299 132.62232564 90.60896858 130.98168945 93.45054626 C129.98550403 95.17594972 128.98969886 96.90157271 127.99389648 98.62719727 C126.70663038 100.85593761 125.41760885 103.08366512 124.12670898 105.31030273 C121.54718113 109.76581967 118.9758221 114.21845045 116.54077148 118.75488281 C112.52477556 126.20790741 108.54712926 132.93972927 100.43527222 136.31777954 C96.08053418 137.50315677 92.10316986 137.55403084 87.61157227 137.54931641 C86.68720367 137.55603363 85.76283508 137.56275085 84.81045532 137.56967163 C81.76477637 137.58861792 78.71931815 137.59257403 75.67358398 137.59472656 C73.5489798 137.60115644 71.4243765 137.60788494 69.29977417 137.61489868 C64.84964953 137.62686274 60.39960247 137.63058036 55.94946289 137.62939453 C50.25776502 137.62919131 44.56656626 137.65650131 38.87498665 137.69093895 C34.48767834 137.71321622 30.10049003 137.71723182 25.71313095 137.71617508 C23.61524611 137.71852948 21.51735789 137.72734387 19.41952896 137.74283981 C16.48058713 137.76251771 13.54272029 137.75665461 10.60375977 137.74462891 C9.74427734 137.75586792 8.88479492 137.76710693 7.99926758 137.77868652 C1.22721388 137.70855735 -3.9601298 135.87208225 -9.14086914 131.44995117 C-13.22741754 126.52804893 -16.46878782 121.43599822 -19.52172852 115.82128906 C-20.55283773 113.96819654 -21.58682689 112.11670433 -22.62329102 110.26660156 C-23.43975098 108.80915527 -23.43975098 108.80915527 -24.27270508 107.32226562 C-27.96919511 100.84773227 -31.87624345 94.49537879 -35.76977539 88.13793945 C-48.76779294 66.72107081 -48.76779294 66.72107081 -47.02172852 58.25878906 C-44.56351957 50.36148656 -40.40041119 43.26018787 -36.26855469 36.14575195 C-35.21502875 34.33127873 -34.17131087 32.51144991 -33.12915039 30.69042969 C-15.5110741 0.01993395 -15.5110741 0.01993395 0 0 Z " fill="#FC56AE" transform="translate(503.021728515625,-0.2587890625)"/>
</svg>
